<svg width="169" height="132" viewBox="0 0 169 132" fill="none" xmlns="http://www.w3.org/2000/svg">
<path d="M1 28.3203H34.0552V43.9386H19.1114V71.1207H32.8234V86.9576H19.1114V132H1V28.3203Z" fill="black"/>
<path d="M76.9649 70.1829C78.4079 67.1933 79.133 63.2658 79.133 58.4005V49.2199C79.133 44.3053 78.3868 40.3143 76.8946 37.2541C75.4023 34.1939 73.1287 31.9375 70.0738 30.4921C67.0188 29.0466 63.0629 28.3203 58.1989 28.3203H36.4766V132H54.595V86.0198C56.228 86.0198 57.481 86.2031 58.3468 86.5627C59.2126 86.9224 59.825 87.4935 60.191 88.2621C60.55 89.0307 60.733 90.0954 60.733 91.4421V132H78.9218V91.5832C78.9218 88.5018 78.4854 86.0551 77.6196 84.2429C76.7538 82.4308 75.1911 81.0347 72.9246 80.0475C71.3056 79.3424 69.1587 78.8065 66.512 78.4328C68.1521 78.0097 69.6444 77.4456 70.9818 76.7264C73.5299 75.3514 75.529 73.1726 76.972 70.1829H76.9649ZM60.8667 62.9555C60.8667 65.7055 60.4233 67.7785 59.5293 69.1746C58.6354 70.5708 57.2064 71.2688 55.2355 71.2688H54.5879V43.0008H55.1651C57.1853 43.0008 58.6424 43.5226 59.5293 44.5591C60.4162 45.5956 60.8667 47.2667 60.8667 49.5866V62.9626V62.9555Z" fill="black"/>
<path d="M107.821 132H126.587L116.775 28.3203H88.6963L79.9609 132H98.2201L99.5435 106.842H106.266L107.814 132H107.821ZM102.767 44.5873L105.407 91.2941H100.261L102.627 44.5873H102.774H102.767Z" fill="black"/>
<path d="M169 65.5569V46.6105C168.951 42.3234 168.12 38.6356 166.508 35.5472C164.896 32.4659 162.51 30.1038 159.363 28.4608C156.21 26.825 152.402 26 147.925 26C143.448 26 139.542 26.8461 136.339 28.5314C133.136 30.2166 130.722 32.6069 129.082 35.6883C127.442 38.7767 126.625 42.4151 126.625 46.6034V112.038C126.625 116.184 127.42 119.752 129.004 122.742C130.595 125.731 132.946 128.023 136.078 129.609C139.204 131.203 143.054 131.993 147.629 131.993C152.205 131.993 156.076 131.182 159.251 129.574C162.425 127.96 164.833 125.661 166.466 122.671C168.099 119.681 168.944 116.142 168.993 112.045V89.3404H151.585V116.769H143.434V41.2375H151.585V65.5569H168.993H169Z" fill="black"/>
<path d="M5.2 11.36H3.248V16H1.76V4.64H5.472C8.528 4.64 9.248 6.496 9.248 8C9.248 9.504 8.384 11.36 5.2 11.36ZM3.248 5.888V10.144H5.232C7.264 10.144 7.68 8.944 7.68 8.016C7.68 7.088 7.296 5.888 5.392 5.888H3.248ZM14.8819 16.272C12.1139 16.272 10.7379 14.208 10.7379 10.832V9.808C10.7379 6.432 12.1139 4.368 14.8819 4.368C17.6499 4.368 19.0259 6.432 19.0259 9.808V10.832C19.0259 14.208 17.6499 16.272 14.8819 16.272ZM14.8819 14.992C16.6579 14.992 17.4739 13.68 17.4739 10.832V9.808C17.4739 6.96 16.6579 5.648 14.8819 5.648C13.1059 5.648 12.2899 6.96 12.2899 9.808V10.832C12.2899 13.68 13.1059 14.992 14.8819 14.992ZM23.3958 16H21.4438L20.5798 4.64H22.0678L22.4518 12.704C22.5158 13.904 22.5158 14.48 22.5158 14.736H22.6758C22.6918 14.368 22.7558 13.728 22.9958 12.592L24.0998 7.44H25.5078L26.6118 12.592C26.8518 13.728 26.9158 14.368 26.9318 14.736H27.0918C27.0918 14.48 27.0918 13.904 27.1558 12.704L27.5398 4.64H29.0278L28.1638 16H26.2118L25.1878 11.12C24.9798 10.112 24.9158 9.504 24.8838 8.848H24.7238C24.6918 9.504 24.6278 10.112 24.4198 11.12L23.3958 16ZM31.4456 4.64H38.0856V5.92H32.9336V9.552H37.8136V10.8H32.9336V14.72H38.1976V16H31.4456V4.64ZM48.8875 16H47.2395L44.6155 11.248H42.5355V16H41.0475V4.64H44.6955C47.1435 4.64 48.5355 5.84 48.5355 7.952C48.5355 9.488 47.6395 10.608 46.1195 11.008L48.8875 16ZM44.6315 5.888H42.5355V10.064H44.6315C46.1515 10.064 46.9675 9.328 46.9675 7.984C46.9675 6.624 46.1515 5.888 44.6315 5.888ZM51.2894 4.64H57.9294V5.92H52.7774V9.552H57.6574V10.8H52.7774V14.72H58.0414V16H51.2894V4.64ZM64.0433 16H60.7473V4.64H64.0753C67.1953 4.64 68.9073 7.024 68.9073 10.304C68.9073 13.552 67.0353 16 64.0433 16ZM62.2353 5.888V14.752H64.0273C66.1713 14.752 67.3713 12.656 67.3713 10.304C67.3713 7.888 66.2673 5.888 64.0593 5.888H62.2353ZM80.815 4.64H84.447C87.375 4.64 88.143 6.32 88.143 7.664C88.143 8.736 87.535 9.728 86.239 10.096C87.599 10.336 88.463 11.328 88.463 12.88C88.463 14.336 87.599 16 84.783 16H80.815V4.64ZM84.431 5.872H82.303V9.6H84.431C86.319 9.6 86.623 8.592 86.623 7.776C86.623 6.832 86.207 5.872 84.431 5.872ZM84.847 10.816H82.303V14.768H84.687C86.399 14.768 86.943 13.808 86.943 12.736C86.943 11.648 86.335 10.816 84.847 10.816ZM98.6889 4.64L95.0089 11.472V16H93.5209V11.472L89.8249 4.64H91.4729L94.2569 10.24L97.0409 4.64H98.6889Z" fill="black"/>
</svg>
